<?xml version="1.0" standalone="no"?>
<!DOCTYPE svg PUBLIC "-//W3C//DTD SVG 20010904//EN"
 "http://www.w3.org/TR/2001/REC-SVG-20010904/DTD/svg10.dtd">
<svg version="1.0" xmlns="http://www.w3.org/2000/svg"
 width="980.000000pt" height="980.000000pt" viewBox="0 0 980.000000 980.000000"
 preserveAspectRatio="xMidYMid meet">

<g transform="translate(0.000000,980.000000) scale(0.100000,-0.100000)"
fill="#000000" stroke="none">
<path d="M3052 7139 c-9 -17 -53 -87 -98 -157 -304 -477 -395 -624 -392 -628
3 -2 1055 -4 2339 -4 2041 0 2334 2 2333 15 -1 8 -52 92 -113 187 -61 95 -173
272 -250 393 l-138 220 -1832 3 -1832 2 -17 -31z"/>
<path d="M3090 5489 c0 -6 13 -29 29 -52 26 -38 197 -303 327 -510 27 -42 87
-137 133 -210 47 -72 179 -280 294 -462 115 -181 227 -357 248 -390 21 -33
112 -177 203 -320 149 -236 287 -453 494 -778 42 -64 80 -116 86 -114 6 2 27
29 46 60 116 186 262 417 324 512 101 154 146 230 146 247 0 7 -42 78 -92 156
-108 166 -131 201 -360 559 -94 147 -198 309 -230 358 -66 101 -72 114 -66
121 3 2 331 5 729 5 398 0 741 3 761 7 37 7 43 16 289 402 138 217 254 400
256 407 4 11 -352 13 -1806 13 -1297 0 -1811 -3 -1811 -11z"/>
</g>
</svg>
